<?xml version="1.0" encoding="UTF-8"?>
<svg id="Laag_1" data-name="Laag 1" xmlns="http://www.w3.org/2000/svg" width="166.92" height="179.78" viewBox="0 0 166.92 179.78">
  <defs>
    <style>
      .cls-1 {
        fill: #fff;
      }
    </style>
  </defs>
  <path class="cls-1" d="M25.69,57.8c0,3.55,2.88,6.42,6.42,6.42h51.36c1.7-.02,3.33-.69,4.54-1.9,1.2-1.2,1.88-2.84,1.88-4.54v-25.68c0-3.54-2.88-6.42-6.43-6.42h0l-51.36.02c-1.7,0-3.33.68-4.54,1.88-1.2,1.2-1.88,2.84-1.88,4.54v25.68ZM77.04,38.53v12.84s-38.51.01-38.51.01v-12.84s38.51-.01,38.51-.01Z"/>
  <path class="cls-1" d="M76.11,125.03c-1.17-1.89-3.24-3.04-5.46-3.04h-15.29s8.19-16.38,8.19-16.38c1.58-3.17.3-7.03-2.87-8.61-3.17-1.59-7.03-.3-8.61,2.87l-12.83,25.68c-1,1.99-.89,4.35.28,6.25,1.17,1.89,3.24,3.04,5.46,3.04h15.29s-8.19,16.39-8.19,16.39c-1.58,3.17-.3,7.03,2.87,8.61.92.46,1.9.68,2.86.68,2.36,0,4.62-1.3,5.75-3.55l12.83-25.68c.99-1.99.89-4.35-.28-6.25Z"/>
  <path class="cls-1" d="M164.06,33.16c-2.95-1.96-6.94-1.17-8.9,1.78l-12.83,19.26c-.7,1.05-1.08,2.29-1.08,3.56v19.25s0,0,0,.01v19.25c0,6.86-2.66,13.31-7.51,18.16-4.85,4.85-11.3,7.52-18.16,7.53h0l-.03-115.55c0-1.7-.68-3.33-1.88-4.54-1.2-1.2-2.84-1.88-4.54-1.88h0L6.42.03C2.87.03,0,2.91,0,6.45l.05,166.91c0,1.7.68,3.33,1.88,4.54,1.2,1.2,2.84,1.88,4.54,1.88h0l102.71-.03c3.54,0,6.42-2.88,6.42-6.42v-38.52s-.01,0-.01,0c10.29,0,19.96-4.01,27.23-11.29,7.27-7.28,11.28-16.95,11.27-27.24v-16.6s4.79-4.8,4.79-4.8c5.64-5.65,7.03-14.24,3.46-21.37l-1.77-3.54,5.27-7.91c1.97-2.95,1.17-6.94-1.78-8.9ZM102.71,12.84l.02,64.2-89.87.03-.02-64.2,89.87-.03ZM12.89,166.94l-.02-77.03,89.87-.03.02,77.03-89.87.03Z"/>
</svg>