<?xml version="1.0" encoding="UTF-8"?>
<svg id="Laag_1" data-name="Laag 1" xmlns="http://www.w3.org/2000/svg" width="89.85" height="192.61" viewBox="0 0 89.85 192.61">
  <defs>
    <style>
      .cls-1 {
        fill: #fff;
      }
    </style>
  </defs>
  <path class="cls-1" d="M89.85,70.61v-38.52c-.01-1.7-.69-3.33-1.89-4.54-1.2-1.2-2.84-1.88-4.54-1.88h-6.42s0-19.26,0-19.26c0-3.54-2.88-6.42-6.42-6.42h0c-3.54,0-6.42,2.88-6.42,6.42v19.26s-25.67,0-25.67,0V6.43c0-3.54-2.88-6.42-6.43-6.42h0c-3.54,0-6.42,2.88-6.42,6.42v19.26s-6.41,0-6.41,0c-1.7,0-3.33.68-4.54,1.88-1.2,1.2-1.88,2.84-1.88,4.54v38.52c.01,10.29,4.02,19.96,11.3,27.23,5.74,5.74,12.97,9.43,20.82,10.74v10.17c0,8.85-7.19,16.05-16.04,16.05C12.95,134.83,0,147.79,0,163.72v22.47c0,3.54,2.88,6.42,6.43,6.42h0c3.55,0,6.42-2.88,6.42-6.42v-22.47c0-8.85,7.19-16.05,16.04-16.05,7.72,0,14.97-3.01,20.42-8.47,5.45-5.46,8.46-12.71,8.46-20.43v-10.17c7.84-1.31,15.07-5.01,20.81-10.75,7.27-7.28,11.28-16.95,11.27-27.24ZM69.49,88.77c-4.85,4.85-11.3,7.52-18.16,7.53h0c-6.86,0-13.3-2.67-18.15-7.51-4.85-4.85-7.52-11.3-7.53-18.16v-32.1s51.35-.02,51.35-.02v32.1c.01,6.86-2.66,13.31-7.51,18.16Z"/>
  <path class="cls-1" d="M57.75,57.78h-2.45s1.77-3.55,1.77-3.55c1.58-3.17.3-7.03-2.87-8.61-3.17-1.59-7.03-.3-8.61,2.87l-6.42,12.84c-1,1.99-.89,4.35.28,6.25,1.17,1.89,3.24,3.04,5.46,3.04h2.46s-1.77,3.55-1.77,3.55c-1.58,3.17-.3,7.03,2.87,8.61.92.46,1.9.68,2.86.68,2.36,0,4.62-1.3,5.75-3.55l6.42-12.84c.99-1.99.89-4.35-.28-6.25-1.17-1.89-3.24-3.04-5.46-3.04Z"/>
</svg>