<?xml version="1.0" encoding="UTF-8"?>
<svg id="Laag_1" data-name="Laag 1" xmlns="http://www.w3.org/2000/svg" width="154.07" height="183.27" viewBox="0 0 154.07 183.27">
  <defs>
    <style>
      .cls-1 {
        fill: #fff;
      }
    </style>
  </defs>
  <path class="cls-1" d="M153.8,174.97l-19.28-64.19c-.82-2.71-3.31-4.57-6.15-4.57h0l-102.71.03c-2.83,0-5.33,1.86-6.15,4.58L.27,175.01c-.58,1.94-.21,4.05,1,5.68s3.12,2.59,5.15,2.59h32.07s.02,0,.03,0c0,0,.01,0,.02,0l76.99-.02s.01,0,.02,0c0,0,.02,0,.02,0h32.08c2.03,0,3.94-.97,5.15-2.6s1.58-3.73,1-5.68ZM129.38,138.3h-15.82s-4.29-19.25-4.29-19.25h14.33s5.78,19.25,5.78,19.25ZM57.76,119.06h12.84s0,0,0,0v19.26s-16.96,0-16.96,0l3.97-17.87c.1-.47.15-.93.15-1.39ZM70.61,151.16v19.26s-24.09,0-24.09,0l4.27-19.26h19.82ZM83.45,151.15h19.82s4.29,19.25,4.29,19.25h-24.1s0-19.25,0-19.25ZM83.44,138.31v-19.26s0,0,0,0h12.84c0,.46.05.92.15,1.39l3.98,17.87h-16.96ZM30.44,119.07h14.33s-4.27,19.26-4.27,19.26h-15.82s5.77-19.26,5.77-19.26ZM20.82,151.17h16.82s-4.27,19.25-4.27,19.25H15.05s5.77-19.25,5.77-19.25ZM120.7,170.4l-4.29-19.26h16.82s5.78,19.25,5.78,19.25h-18.32Z"/>
  <path class="cls-1" d="M77,69.22h0c12.42,0,22.52-10.11,22.52-22.53,0-12.42-10.11-22.52-22.53-22.52h0c-12.42,0-22.52,10.11-22.52,22.53,0,12.42,10.11,22.52,22.53,22.52ZM76.99,37h0c5.34,0,9.69,4.34,9.69,9.69,0,5.34-4.34,9.69-9.69,9.69h0c-5.34,0-9.69-4.34-9.69-9.69,0-5.34,4.34-9.69,9.69-9.69Z"/>
  <path class="cls-1" d="M76.99,0h0C80.53,0,83.41,2.88,83.41,6.42v8.06c0,3.54-2.88,6.42-6.42,6.42h0c-3.54,0-6.42-2.88-6.42-6.42V6.42C70.57,2.88,73.44,0,76.99,0Z"/>
  <path class="cls-1" d="M77.01,72.49h0c3.54,0,6.42,2.88,6.42,6.42v8.06c0,3.54-2.88,6.42-6.42,6.42h0c-3.54,0-6.42-2.88-6.42-6.42v-8.06c0-3.54,2.88-6.42,6.42-6.42Z"/>
  <path class="cls-1" d="M102.79,46.68c0,3.54,2.87,6.42,6.42,6.42h8.06c3.55,0,6.42-2.88,6.42-6.42,0-3.54-2.87-6.42-6.42-6.42h-8.06c-3.55,0-6.42,2.88-6.42,6.42Z"/>
  <path class="cls-1" d="M36.73,53.12h8.06c3.55,0,6.42-2.88,6.42-6.42,0-3.54-2.88-6.42-6.42-6.42h-8.06c-3.55,0-6.42,2.88-6.42,6.42,0,3.54,2.88,6.42,6.42,6.42Z"/>
  <path class="cls-1" d="M99.77,30.32c1.64,0,3.29-.63,4.54-1.88l5.69-5.7c2.51-2.51,2.51-6.57,0-9.08-2.51-2.51-6.57-2.51-9.08,0l-5.69,5.7c-2.51,2.51-2.51,6.57,0,9.08,1.25,1.25,2.9,1.88,4.54,1.88Z"/>
  <path class="cls-1" d="M49.68,64.94l-5.69,5.7c-2.51,2.51-2.51,6.57,0,9.08,1.25,1.25,2.9,1.88,4.54,1.88s3.29-.63,4.54-1.88l5.69-5.7c2.51-2.51,2.51-6.57,0-9.08-2.51-2.51-6.57-2.51-9.08,0Z"/>
  <path class="cls-1" d="M95.24,64.92c-2.51,2.51-2.51,6.57,0,9.08l5.7,5.69c1.25,1.25,2.9,1.88,4.54,1.88s3.29-.63,4.54-1.88c2.51-2.51,2.51-6.57,0-9.08l-5.7-5.69c-2.51-2.51-6.57-2.51-9.08,0Z"/>
  <path class="cls-1" d="M49.67,28.46c1.25,1.25,2.9,1.88,4.54,1.88s3.29-.63,4.54-1.88c2.51-2.51,2.51-6.57,0-9.08l-5.7-5.69c-2.51-2.51-6.57-2.51-9.08,0-2.51,2.51-2.51,6.57,0,9.08l5.7,5.69Z"/>
</svg>