<?xml version="1.0" encoding="UTF-8"?>
<svg id="Laag_1" data-name="Laag 1" xmlns="http://www.w3.org/2000/svg" width="254.41" height="254.41" viewBox="0 0 254.41 254.41">
  <defs>
    <style>
      .cls-1 {
        fill: #1d70b7;
      }

      .cls-2 {
        fill: #7e4e24;
      }

      .cls-3 {
        fill: #39a935;
      }

      .cls-4 {
        fill: #ffec00;
      }
    </style>
  </defs>
  <path class="cls-4" d="M204.36,130.61c.62,11.67,4.23,19.04,10.74,21.9,5.86,2.57,13.13,1.25,17.89-.41l18.96-18.96c3.28-3.28,3.28-8.6,0-11.88l-47.53-47.53c-3.29-3.29-8.61-3.29-11.89,0l-16.36,16.36c.48.08.96.17,1.44.28,7.47,1.66,25.06,8.92,26.74,40.25Z"/>
  <path class="cls-4" d="M204.15,156.26c-4.69-4.69-8.58-12.41-9.26-25.14-.94-17.49-7.98-28.97-19.34-31.5-3.34-.74-6.5-.54-9.06.15l-21.49,21.49c-3.28,3.28-3.29,8.61,0,11.9l47.53,47.53c3.28,3.28,8.61,3.27,11.89,0l17.26-17.26c-1.38-.04-2.8-.16-4.22-.41-3.81-.64-8.91-2.35-13.31-6.76Z"/>
  <path class="cls-2" d="M180.68,49.99L133.14,2.46c-3.28-3.28-8.6-3.28-11.88,0l-20.49,20.49,18.31,18.31,18.01-18.01,6.71,6.71-8.36,8.36c8.77-.89,18.06,1.98,25.33,8.6l-6.39,7.01c-8.95-8.16-22.1-8.42-29.93-.59s-7.58,20.98.59,29.93l-7.01,6.39c-6.63-7.27-9.49-16.57-8.61-25.33l-8.2,8.2-6.71-6.71,17.85-17.85-18.31-18.31-20.33,20.33c-3.28,3.28-3.29,8.61-.01,11.89l47.53,47.53c3.29,3.29,8.62,3.28,11.9,0l47.54-47.54c3.28-3.28,3.28-8.6,0-11.89Z"/>
  <path class="cls-3" d="M109.41,121.26l-20.15-20.15-13.57,13.57,17.44,17.44-6.71,6.71-41.6-41.6,6.71-6.71,17.44,17.44,13.57-13.57-20.68-20.68c-3.28-3.28-8.6-3.28-11.88,0L2.46,121.26c-3.29,3.29-3.28,8.6,0,11.88l47.53,47.53c3.29,3.29,8.61,3.29,11.89,0l47.53-47.53c3.28-3.28,3.28-8.6,0-11.89ZM48.76,152.73l-17.82-17.82,6.71-6.71,17.82,17.82-6.71,6.71ZM67.49,145.89l-29.71-29.71,6.71-6.71,29.71,29.71-6.71,6.71Z"/>
  <path class="cls-1" d="M148.59,177.1c10.67,10.67,11.69,27.32,3.09,39.14l8.59,8.59,20.41-20.41c3.28-3.28,3.28-8.6,0-11.88l-47.53-47.53c-3.29-3.29-8.61-3.29-11.89,0l-20.41,20.41,8.6,8.6c11.82-8.6,28.47-7.58,39.14,3.09Z"/>
  <path class="cls-1" d="M107.03,203.27c.85,3.62,2.68,7.06,5.5,9.88s6.37,4.7,10.04,5.54v-15.41s-15.54,0-15.54,0Z"/>
  <path class="cls-1" d="M147.41,193.79c-.84-3.67-2.69-7.14-5.53-9.99s-6.22-4.64-9.82-5.5v15.48s15.35,0,15.35,0Z"/>
  <path class="cls-1" d="M105.82,219.86c-10.67-10.67-11.7-27.32-3.09-39.15l-8.6-8.6-20.41,20.41c-3.29,3.29-3.28,8.61,0,11.89l47.53,47.53c3.28,3.28,8.6,3.28,11.89,0l20.41-20.41-8.59-8.59c-11.82,8.61-28.48,7.58-39.14-3.08Z"/>
  <path class="cls-1" d="M122.58,178.26c-3.68.84-7.18,2.68-10.04,5.54s-4.69,6.32-5.53,10h15.57s0-15.53,0-15.53Z"/>
  <path class="cls-1" d="M132.06,218.65c3.6-.87,7.02-2.69,9.83-5.5s4.65-6.25,5.51-9.87h-15.33s0,15.37,0,15.37Z"/>
</svg>